<svg width="40" height="40" viewBox="0 0 40 40" fill="none" xmlns="http://www.w3.org/2000/svg">
<path d="M12.5553 36.4286C7.93392 36.4286 3.62596 35.0844 0 32.7652C3.07856 32.9644 8.51153 32.4873 11.8908 29.264C6.80725 29.0307 4.51466 25.1319 4.21563 23.4657C4.64756 23.6323 6.70757 23.8322 7.87048 23.3657C2.02271 21.8995 1.12561 16.7676 1.32497 15.2014C2.42142 15.9678 4.28208 16.2344 5.01305 16.1678C-0.43601 12.2689 1.52432 6.40395 2.48788 5.13765C6.39832 10.5552 12.2589 13.598 19.5091 13.7672C19.3724 13.1677 19.3002 12.5435 19.3002 11.9024C19.3002 7.30132 23.0192 3.57144 27.6067 3.57144C30.0036 3.57144 32.1634 4.58966 33.6796 6.21835C35.2813 5.84302 37.6919 4.9644 38.8703 4.20459C38.2763 6.33731 36.427 8.11643 35.3084 8.77584C35.2993 8.75331 35.3177 8.79827 35.3084 8.77584C36.291 8.62721 38.9497 8.11625 40 7.40366C39.4806 8.6018 37.52 10.5939 35.911 11.7092C36.2104 24.9115 26.1093 36.4286 12.5553 36.4286Z" fill="#47ACDF"/>
</svg>
